# File generated by ImageToStl.com - Free Image and 3D model conversion tools

mtllib Cross walk.mtl

o obj1
v -2.7999999 6.5E-07 3.99999991
v -2.7999999 4.9E-07 2.99999993
v -2.99999993 6.5E-07 3.99999991
v -2.99999993 4.9E-07 2.99999993
v -2.99999993 6.5E-07 3.99999991
v -2.99999993 0.10000049 2.99999994
v -2.99999993 0.10000063 3.99999991
v -2.99999993 4.9E-07 2.99999993
v -3.99999991 0.10000049 2.99999994
v -3.99999991 0.10000063 3.99999991
v -2.7999999 6.5E-07 3.99999991
v 0 6.5E-07 3.99999991
v 0 4.9E-07 2.99999993
v -2.7999999 4.9E-07 2.99999993
v 2.7999999 6.5E-07 3.99999991
v 2.7999999 4.9E-07 2.99999993
v 0 4.6E-07 2.80000009
v -2.7999999 4.6E-07 2.80000009
v -2.7999999 1.6E-07 0.99999998
v 0 0 0
v -2.7999999 0 0
v 0 1.6E-07 0.99999998
v -3.99999991 0 0
v 2.7999999 3.3E-07 1.99999996
v 2.7999999 1.6E-07 0.99999998
v 2.7999999 0 0
v 2.7999999 -1.6E-07 -0.99999998
v 0 -1.6E-07 -0.99999998
v -2.7999999 -1.6E-07 -0.99999998
v -2.7999999 3.3E-07 1.99999996
v 0 3.3E-07 1.99999996
v -3.99999991 1.6E-07 0.99999998
v 2.7999999 4.6E-07 2.80000009
v -3.99999991 3.3E-07 1.99999996
v -3.99999991 4.9E-07 2.99999993
v -3.99999991 -1.6E-07 -0.99999998
v -2.7999999 4.6E-07 2.80000009
v -3.99999991 4.6E-07 2.80000009
v -3.99999991 4.6E-07 2.80000009
v -3.99999991 4.9E-07 2.99999993
v 2.99999993 6.5E-07 3.99999991
v 2.7999999 4.9E-07 2.99999993
v 2.7999999 6.5E-07 3.99999991
v 2.99999993 4.9E-07 2.99999993
v 3.99999991 4.9E-07 2.99999993
v 3.99999991 4.6E-07 2.80000009
v 2.7999999 4.6E-07 2.80000009
v 2.99999993 6.5E-07 3.99999991
v 2.99999993 0.10000049 2.99999994
v 2.99999993 4.9E-07 2.99999993
v 2.99999993 0.10000063 3.99999991
v 3.99999991 0.10000049 2.99999994
v 3.99999991 0.10000063 3.99999991
v 3.99999991 0 0
v 3.99999991 1.6E-07 0.99999998
v 3.99999991 3.3E-07 1.99999996
v 3.99999991 4.9E-07 2.99999993
v 3.99999991 4.6E-07 2.80000009
v -2.99999993 -6.5E-07 -3.99999991
v -2.99999993 -4.9E-07 -2.99999993
v -2.7999999 -4.9E-07 -2.99999993
v -2.7999999 -6.5E-07 -3.99999991
v -2.99999993 0.09999934 -3.99999991
v -2.99999993 0.0999995 -2.99999993
v -2.99999993 -4.9E-07 -2.99999993
v -2.99999993 -6.5E-07 -3.99999991
v -3.99999991 0.0999995 -2.99999993
v -3.99999991 0.09999934 -3.99999991
v 0 -6.5E-07 -3.99999991
v -2.7999999 -6.5E-07 -3.99999991
v 0 -4.9E-07 -2.99999993
v 2.7999999 -4.9E-07 -2.99999993
v 2.7999999 -6.5E-07 -3.99999991
v -2.7999999 -4.9E-07 -2.99999993
v 0 -4.6E-07 -2.80000009
v 2.7999999 -3.3E-07 -1.99999996
v 0 -3.3E-07 -1.99999996
v -2.7999999 -3.3E-07 -1.99999996
v 2.7999999 -4.6E-07 -2.80000009
v -2.7999999 -4.6E-07 -2.80000009
v -3.99999991 -4.9E-07 -2.99999993
v -3.99999991 -3.3E-07 -1.99999996
v -2.7999999 -4.6E-07 -2.80000009
v -3.99999991 -4.6E-07 -2.80000009
v -3.99999991 -4.6E-07 -2.80000009
v -3.99999991 -4.9E-07 -2.99999993
v 2.99999993 -6.5E-07 -3.99999991
v 2.7999999 -4.9E-07 -2.99999993
v 2.99999993 -4.9E-07 -2.99999993
v 2.7999999 -6.5E-07 -3.99999991
v 3.99999991 -4.6E-07 -2.80000009
v 3.99999991 -4.9E-07 -2.99999993
v 2.99999993 0.0999995 -2.99999993
v 2.99999993 0.09999934 -3.99999991
v 2.99999993 -4.9E-07 -2.99999993
v 2.99999993 -6.5E-07 -3.99999991
v 3.99999991 0.0999995 -2.99999993
v 3.99999991 0.09999934 -3.99999991
v 3.99999991 -1.6E-07 -0.99999998
v 3.99999991 -3.3E-07 -1.99999996
v 3.99999991 -4.6E-07 -2.80000009
v 3.99999991 -4.9E-07 -2.99999993
v 2.7999999 -4.6E-07 -2.80000009
v -3.75534371 0.00120415 -2.14487426
v -2.93333326 0.00120413 -2.30986476
v -3.75534371 0.00120413 -2.30986476
v -2.93333326 0.00120415 -2.14487426
v -3.75534371 0.00120423 -1.64990332
v -2.93333326 0.00120423 -1.64990332
v -2.93333326 0.00120421 -1.81489363
v -3.75534371 0.00120421 -1.81489363
v -3.75534371 0.00120431 -1.15493238
v -2.93333326 0.00120431 -1.15493238
v -2.93333326 0.00120429 -1.31992269
v -3.75534371 0.00120429 -1.31992269
v -3.75534371 0.00120439 -0.65996149
v -2.93333326 0.00120439 -0.65996144
v -2.93333326 0.00120437 -0.82495175
v -3.75534371 0.00120437 -0.82495185
v -3.75534371 0.00120448 -0.1649905
v -2.93333326 0.00120448 -0.16499046
v -2.93333326 0.00120445 -0.32998079
v -3.75534371 0.00120445 -0.32998084
v -2.93333326 0.00120485 2.14487389
v -3.75534371 0.00120485 2.14487389
v -2.93333326 0.00120488 2.3098642
v -3.75534371 0.00120488 2.3098642
v -2.93333326 0.00120477 1.64990295
v -3.75534371 0.00120477 1.64990295
v -2.93333326 0.0012048 1.81489326
v -3.75534371 0.0012048 1.81489326
v -2.93333326 0.00120469 1.1549321
v -3.75534371 0.00120469 1.1549321
v -2.93333326 0.00120472 1.31992241
v -3.75534371 0.00120472 1.31992241
v -2.93333326 0.00120461 0.65996121
v -3.75534371 0.00120464 0.82495147
v -2.93333326 0.00120464 0.82495147
v -3.75534371 0.00120461 0.65996116
v -2.93333326 0.00120453 0.1649902
v -3.75534371 0.00120456 0.32998049
v -2.93333326 0.00120456 0.32998053
v -3.75534371 0.00120453 0.16499017
v 3.75534371 0.00120415 -2.14487389
v 2.93333326 0.00120413 -2.3098642
v 2.93333326 0.00120415 -2.14487389
v 3.75534371 0.00120413 -2.3098642
v 3.75534371 0.00120423 -1.64990295
v 2.93333326 0.00120421 -1.81489326
v 2.93333326 0.00120423 -1.64990295
v 3.75534371 0.00120421 -1.81489326
v 3.75534371 0.00120431 -1.1549321
v 2.93333326 0.00120429 -1.31992241
v 2.93333326 0.00120431 -1.1549321
v 3.75534371 0.00120429 -1.31992241
v 2.93333326 0.00120439 -0.65996121
v 3.75534371 0.00120437 -0.82495147
v 2.93333326 0.00120437 -0.82495147
v 3.75534371 0.00120439 -0.65996116
v 2.93333326 0.00120448 -0.1649902
v 3.75534371 0.00120445 -0.32998049
v 2.93333326 0.00120445 -0.32998053
v 3.75534371 0.00120448 -0.16499017
v 2.93333326 0.00120488 2.30986476
v 3.75534371 0.00120488 2.30986476
v 3.75534371 0.00120485 2.14487426
v 2.93333326 0.00120485 2.14487426
v 3.75534371 0.00120477 1.64990332
v 2.93333326 0.0012048 1.81489363
v 3.75534371 0.0012048 1.81489363
v 2.93333326 0.00120477 1.64990332
v 3.75534371 0.00120469 1.15493238
v 2.93333326 0.00120472 1.31992269
v 3.75534371 0.00120472 1.31992269
v 2.93333326 0.00120469 1.15493238
v 2.93333326 0.00120464 0.82495175
v 3.75534371 0.00120464 0.82495185
v 3.75534371 0.00120461 0.65996149
v 2.93333326 0.00120461 0.65996144
v 2.93333326 0.00120456 0.32998079
v 3.75534371 0.00120456 0.32998084
v 3.75534371 0.00120453 0.1649905
v 2.93333326 0.00120453 0.16499046
v -2.14487407 0.00120511 3.75534371
v -2.30986439 0.00120498 2.93333326
v -2.30986439 0.00120511 3.75534371
v -2.14487407 0.00120498 2.93333326
v -1.64990313 0.00120511 3.75534371
v -1.81489345 0.00120498 2.93333326
v -1.81489345 0.00120511 3.75534371
v -1.64990313 0.00120498 2.93333326
v -1.15493219 0.00120511 3.75534371
v -1.31992251 0.00120498 2.93333326
v -1.31992251 0.00120511 3.75534371
v -1.15493219 0.00120498 2.93333326
v -0.65996135 0.00120511 3.75534371
v -0.82495166 0.00120498 2.93333326
v -0.82495166 0.00120511 3.75534371
v -0.65996135 0.00120498 2.93333326
v -0.16499034 0.00120511 3.75534371
v -0.32998067 0.00120498 2.93333326
v -0.32998067 0.00120511 3.75534371
v -0.16499034 0.00120498 2.93333326
v 2.30986439 0.00120511 3.75534371
v 2.30986439 0.00120498 2.93333326
v 2.14487407 0.00120511 3.75534371
v 2.14487407 0.00120498 2.93333326
v 1.81489345 0.00120511 3.75534371
v 1.81489345 0.00120498 2.93333326
v 1.64990313 0.00120511 3.75534371
v 1.64990313 0.00120498 2.93333326
v 1.31992251 0.00120511 3.75534371
v 1.31992251 0.00120498 2.93333326
v 1.15493219 0.00120511 3.75534371
v 1.15493219 0.00120498 2.93333326
v 0.82495166 0.00120511 3.75534371
v 0.82495166 0.00120498 2.93333326
v 0.65996135 0.00120511 3.75534371
v 0.65996135 0.00120498 2.93333326
v 0.32998067 0.00120511 3.75534371
v 0.32998067 0.00120498 2.93333326
v 0.16499034 0.00120511 3.75534371
v 0.16499034 0.00120498 2.93333326
v -2.14487407 0.00120389 -3.75534371
v -2.30986439 0.00120402 -2.93333326
v -2.14487407 0.00120402 -2.93333326
v -2.30986439 0.00120389 -3.75534371
v -1.64990313 0.00120402 -2.93333326
v -1.64990313 0.00120389 -3.75534371
v -1.81489345 0.00120402 -2.93333326
v -1.81489345 0.00120389 -3.75534371
v -1.15493219 0.00120402 -2.93333326
v -1.15493219 0.00120389 -3.75534371
v -1.31992251 0.00120402 -2.93333326
v -1.31992251 0.00120389 -3.75534371
v -0.65996135 0.00120402 -2.93333326
v -0.65996135 0.00120389 -3.75534371
v -0.82495166 0.00120402 -2.93333326
v -0.82495166 0.00120389 -3.75534371
v -0.16499034 0.00120402 -2.93333326
v -0.16499034 0.00120389 -3.75534371
v -0.32998067 0.00120402 -2.93333326
v -0.32998067 0.00120389 -3.75534371
v 2.14487407 0.00120389 -3.75534371
v 2.14487407 0.00120402 -2.93333326
v 2.30986439 0.00120402 -2.93333326
v 2.30986439 0.00120389 -3.75534371
v 1.64990313 0.00120389 -3.75534371
v 1.64990313 0.00120402 -2.93333326
v 1.81489345 0.00120402 -2.93333326
v 1.81489345 0.00120389 -3.75534371
v 1.15493219 0.00120389 -3.75534371
v 1.15493219 0.00120402 -2.93333326
v 1.31992251 0.00120402 -2.93333326
v 1.31992251 0.00120389 -3.75534371
v 0.65996135 0.00120389 -3.75534371
v 0.65996135 0.00120402 -2.93333326
v 0.82495166 0.00120402 -2.93333326
v 0.82495166 0.00120389 -3.75534371
v 0.16499034 0.00120389 -3.75534371
v 0.16499034 0.00120402 -2.93333326
v 0.32998067 0.00120402 -2.93333326
v 0.32998067 0.00120389 -3.75534371
vn 0 1 -0
vn 0 1 -0
vn 0 1 -0
vn 0 1 -0
vn 1 0 0
vn 0 1 -0
vn 0 1 -0
vn 0 1 -0
vn 0 1 -0
vn 0 1 -0
vn 0 1 -0
vn 0 1 -0
vn 0 0 -1
vn 0 1 -0
vn -1 0 0
vn 0 0 1
vn 0 1 -0
vn 0 1 -0
vn 0 1 -0
vn 0 1 -0
vn 0 1 -0
vn 0 1 -0
vn 0 1 -0
vn 0 1 -0
vn 0 1 -0
vn 0 1 -0
vt 0.07798 0.04845
vt 0.04722 0.04968
vt 0.01646 0.05214
usemtl mat0
f 1/1/1 2/1/2 3/1/3
f 3/1/3 2/1/2 4/1/4
f 5/2/5 6/2/5 7/2/5
f 6/2/5 5/2/5 8/2/5
f 7/2/6 9/2/6 10/2/6
f 9/2/6 7/2/6 6/2/6
f 11/3/1 12/3/7 13/3/8
f 11/3/1 13/3/8 14/3/2
f 13/3/8 15/3/1 16/3/8
f 14/3/2 13/3/8 17/3/9
f 14/3/2 17/3/9 18/3/2
f 19/3/10 20/3/7 21/3/10
f 19/3/10 22/3/7 20/3/7
f 19/3/10 21/3/10 23/3/10
f 22/3/7 24/3/11 25/3/10
f 20/3/7 26/3/10 27/3/10
f 20/3/7 27/3/10 28/3/7
f 20/3/7 25/3/10 26/3/10
f 21/3/10 20/3/7 29/3/10
f 30/3/11 31/3/11 22/3/7
f 30/3/11 22/3/7 19/3/10
f 30/3/11 19/3/10 32/3/10
f 31/3/11 33/3/12 24/3/11
f 17/3/9 16/3/8 33/3/12
f 18/3/2 17/3/9 31/3/11
f 18/3/2 31/3/11 30/3/11
f 18/3/2 30/3/11 34/3/11
f 35/2/13 6/2/13 8/2/13
f 6/2/13 35/2/13 9/2/13
f 32/3/10 19/3/10 23/3/10
f 23/3/10 21/3/10 29/3/10
f 23/3/10 29/3/10 36/3/10
f 37/1/2 4/1/4 2/1/2
f 37/1/2 38/1/14 4/1/4
f 34/3/11 30/3/11 32/3/10
f 39/3/3 18/3/2 34/3/11
f 40/1/14 4/1/4 38/1/14
f 41/1/3 42/1/8 43/1/1
f 42/1/8 41/1/3 44/1/4
f 44/1/4 45/1/14 46/1/14
f 44/1/4 46/1/14 47/1/12
f 48/2/15 49/2/15 50/2/15
f 49/2/15 48/2/15 51/2/15
f 51/2/6 52/2/6 49/2/6
f 51/2/6 53/2/6 52/2/6
f 15/3/1 13/3/8 12/3/7
f 16/3/8 17/3/9 13/3/8
f 25/3/10 20/3/7 22/3/7
f 25/3/10 54/3/10 26/3/10
f 24/3/11 22/3/7 31/3/11
f 24/3/11 55/3/10 25/3/10
f 33/3/12 31/3/11 17/3/9
f 33/3/12 56/3/11 24/3/11
f 57/2/13 49/2/13 52/2/13
f 57/2/13 50/2/13 49/2/13
f 55/3/10 54/3/10 25/3/10
f 54/3/10 27/3/10 26/3/10
f 47/1/12 42/1/8 44/1/4
f 56/3/11 55/3/10 24/3/11
f 58/3/3 56/3/11 33/3/12
f 59/1/3 60/1/4 61/1/8
f 61/1/8 62/1/1 59/1/3
f 63/2/5 64/2/5 65/2/5
f 65/2/5 66/2/5 63/2/5
f 63/2/6 67/2/6 64/2/6
f 67/2/6 63/2/6 68/2/6
f 69/3/7 70/3/1 71/3/8
f 71/3/8 72/3/2 73/3/1
f 71/3/8 73/3/1 69/3/7
f 71/3/8 74/3/8 75/3/9
f 74/3/8 71/3/8 70/3/1
f 28/3/7 76/3/11 77/3/11
f 28/3/7 27/3/10 76/3/11
f 28/3/7 29/3/10 20/3/7
f 29/3/10 28/3/7 78/3/11
f 77/3/11 76/3/11 79/3/2
f 77/3/11 79/3/2 75/3/9
f 77/3/11 78/3/11 28/3/7
f 78/3/11 77/3/11 80/3/12
f 75/3/9 72/3/2 71/3/8
f 75/3/9 80/3/12 77/3/11
f 80/3/12 75/3/9 74/3/8
f 64/2/16 67/2/16 81/2/16
f 64/2/16 81/2/16 65/2/16
f 36/3/10 78/3/11 82/3/11
f 36/3/10 29/3/10 78/3/11
f 83/1/12 61/1/8 60/1/4
f 82/3/11 80/3/12 84/3/3
f 82/3/11 78/3/11 80/3/12
f 85/1/14 60/1/4 86/1/14
f 85/1/14 83/1/12 60/1/4
f 87/1/3 88/1/2 89/1/4
f 88/1/2 87/1/3 90/1/1
f 89/1/4 91/1/14 92/1/14
f 93/2/15 94/2/15 95/2/15
f 95/2/15 94/2/15 96/2/15
f 93/2/6 97/2/6 94/2/6
f 97/2/6 98/2/6 94/2/6
f 72/3/2 75/3/9 79/3/2
f 27/3/10 54/3/10 99/3/10
f 76/3/11 99/3/10 100/3/11
f 79/3/2 100/3/11 101/3/3
f 95/2/16 102/2/16 93/2/16
f 97/2/16 93/2/16 102/2/16
f 99/3/10 76/3/11 27/3/10
f 103/1/2 91/1/14 89/1/4
f 103/1/2 89/1/4 88/1/2
f 100/3/11 79/3/2 76/3/11
f 104/2/17 105/2/17 106/2/17
f 104/2/17 107/2/17 105/2/17
f 108/2/18 109/2/18 110/2/18
f 108/2/18 110/2/18 111/2/18
f 112/2/18 113/2/18 114/2/18
f 112/2/18 114/2/18 115/2/18
f 116/2/19 117/2/19 118/2/19
f 116/2/19 118/2/19 119/2/19
f 120/2/20 121/2/20 122/2/20
f 120/2/20 122/2/20 123/2/20
f 124/2/17 125/2/17 126/2/17
f 127/2/17 126/2/17 125/2/17
f 128/2/18 129/2/18 130/2/18
f 131/2/18 130/2/18 129/2/18
f 132/2/21 133/2/21 134/2/21
f 135/2/21 134/2/21 133/2/21
f 136/2/22 137/2/22 138/2/22
f 137/2/22 136/2/22 139/2/22
f 140/2/23 141/2/23 142/2/23
f 141/2/23 140/2/23 143/2/23
f 144/2/17 145/2/17 146/2/17
f 145/2/17 144/2/17 147/2/17
f 148/2/18 149/2/18 150/2/18
f 149/2/18 148/2/18 151/2/18
f 152/2/18 153/2/18 154/2/18
f 153/2/18 152/2/18 155/2/18
f 156/2/22 157/2/22 158/2/22
f 157/2/22 156/2/22 159/2/22
f 160/2/23 161/2/23 162/2/23
f 161/2/23 160/2/23 163/2/23
f 164/2/17 165/2/17 166/2/17
f 164/2/17 166/2/17 167/2/17
f 168/2/18 169/2/18 170/2/18
f 169/2/18 168/2/18 171/2/18
f 172/2/21 173/2/21 174/2/21
f 173/2/21 172/2/21 175/2/21
f 176/2/19 177/2/19 178/2/19
f 176/2/19 178/2/19 179/2/19
f 180/2/20 181/2/20 182/2/20
f 180/2/20 182/2/20 183/2/20
f 184/2/24 185/2/24 186/2/24
f 185/2/24 184/2/24 187/2/24
f 188/2/25 189/2/25 190/2/25
f 189/2/25 188/2/25 191/2/25
f 192/2/25 193/2/25 194/2/25
f 193/2/25 192/2/25 195/2/25
f 196/2/25 197/2/25 198/2/25
f 197/2/25 196/2/25 199/2/25
f 200/2/26 201/2/26 202/2/26
f 201/2/26 200/2/26 203/2/26
f 204/2/24 205/2/24 206/2/24
f 206/2/24 205/2/24 207/2/24
f 208/2/25 209/2/25 210/2/25
f 210/2/25 209/2/25 211/2/25
f 212/2/25 213/2/25 214/2/25
f 214/2/25 213/2/25 215/2/25
f 216/2/25 217/2/25 218/2/25
f 218/2/25 217/2/25 219/2/25
f 220/2/26 221/2/26 222/2/26
f 222/2/26 221/2/26 223/2/26
f 224/2/24 225/2/24 226/2/24
f 225/2/24 224/2/24 227/2/24
f 228/2/25 229/2/25 230/2/25
f 230/2/25 229/2/25 231/2/25
f 232/2/25 233/2/25 234/2/25
f 234/2/25 233/2/25 235/2/25
f 236/2/25 237/2/25 238/2/25
f 238/2/25 237/2/25 239/2/25
f 240/2/26 241/2/26 242/2/26
f 242/2/26 241/2/26 243/2/26
f 244/2/24 245/2/24 246/2/24
f 246/2/24 247/2/24 244/2/24
f 248/2/25 249/2/25 250/2/25
f 250/2/25 251/2/25 248/2/25
f 252/2/25 253/2/25 254/2/25
f 254/2/25 255/2/25 252/2/25
f 256/2/25 257/2/25 258/2/25
f 258/2/25 259/2/25 256/2/25
f 260/2/26 261/2/26 262/2/26
f 262/2/26 263/2/26 260/2/26
# Vertices: 263, normals: 26, texture coordinates: 3, faces: 188

