# File generated by ImageToStl.com - Free Image and 3D model conversion tools

mtllib Floor Grass Sliced B.mtl

o obj1
v -0.99999998 0 0.99999998
v 0.99999998 -0.50000001 0.99999999
v 0.99999998 0 0.99999998
v -0.99999998 -0.50000001 0.99999999
v 0.99999998 0 0.99999998
v -0.99999998 -0 -0.99999998
v -0.99999998 0 0.99999998
v 0.99999998 -0 -0.99999998
v -0.99999998 -0 -0.99999998
v 0.99999998 -0 -0.99999998
v -0.99999998 -0.50000001 -0.99999997
v 0.99999998 -0.50000001 -0.99999997
vn 0 0 1
vn 0 1 -0
vn 0 -0 -1
vn 1 -0 0
vn -1 -0 0
vn 0 -1 0
vt 0.86709 0.03964
vt 0.86753 0.03931
vt 0.86753 0.03964
vt 0.86709 0.03931
vt 1 0
vt 0 1
vt 0 0
vt 1 1
usemtl mat0
f 1/1/1 2/2/1 3/3/1
f 2/2/1 1/1/1 4/4/1
f 5/5/2 6/6/2 7/7/2
f 6/6/2 5/5/2 8/8/2
f 9/1/3 10/3/3 11/4/3
f 12/2/3 11/4/3 10/3/3
f 2/2/4 12/2/4 3/3/4
f 3/3/4 12/2/4 10/3/4
f 1/1/5 11/4/5 4/4/5
f 11/4/5 1/1/5 9/1/5
f 4/4/6 12/2/6 2/2/6
f 12/2/6 4/4/6 11/4/6
# Vertices: 12, normals: 6, texture coordinates: 8, faces: 12

